<?xml version="1.0" encoding="UTF-8"?>
<svg id="Layer_2" data-name="Layer 2" xmlns="http://www.w3.org/2000/svg" viewBox="0 0 1000 560">
  <defs>
    <style>
      .cls-1 {
        fill: #b9529f;
      }
    </style>
  </defs>
  <g id="Layer_1-2" data-name="Layer 1">
    <g id="Wordmark">
      <path class="cls-1" d="M565.9,480.1c-1.58,4.56-3.48,9.85-4.16,14.16l-2.03,12.88,4.55-8.22c.25,4.86-.48,10.43-3.23,14.24-2.01,2.79-6.91,3.56-10.51,2.71l2.85-4.08c-6.87.84-14.62,2.26-21.29,4.1-.3,2.25-.73,3.81-2.57,4.24-2.17.51-3.64-.5-3.82-2.84l-4.51-.34,9.84-53.6,4.43-22.88,9.15-48.7,4.75-25.11,6.56-34.92,8.51-44.94c11.87-2.47,26.1-2.91,36.05-4.46,1.47-.23,3.79,1.8,4.85,2.98.3-.86.51-1.18.33-1.42l-1.61-2.07,11.78-1.38,17.54-2.05c1.46,1.02,3.34,2.17,5.8,3.31l2.74,45.85c.29,4.83.59,9.18-.11,14.45l-1.53-6.14.39,7.54c1.07,20.74,1.85,40.87,4.69,62.05,2.39-2.51-2.11-17.42,1.43-17.62l3.93,53.63,1.82,24.51.56,14.91c.17,4.42,1.5,10.4,1.18,14.81-6.26,5.66-14.51,6.22-22.62,6-3.96-.1-12.21.92-14-4.05-3.05-8.49-1.26-18.2-4.22-23.49l-17.25,1.82c-1.32.14-2.9-1.45-3.4-3.1-10.46,1.72-15.37,2.76-26.89,7.24ZM582.82,410.42l-2.58,11.35c-.44,1.95-1.47,4.29-2.42,6.79l14.68-2.89,11.66-2.08-7-21.15c-1.28-3.87-3-9.34-3.38-13.5-1.59-17.4,2.18-37.68,1.57-55.93l-3.37,16.13-4.94,24.21c-1.92,9.39,3.58,13.79-2.62,31.1l-2.56-3.1-3.62,14.12c-1.03,4.03-1.72,7.86-2.04,12.33,4.87-4.75,2.28-14.98,6.62-17.37Z"/>
      <path class="cls-1" d="M799.7,436.06l14.99,2.19,8.46.91-.43,11.85c2.68.81,5.29.12,7.58-1.16l12.2-6.79c4.58-2.55,9.03-5.21,13.59-8.07l1.42-16.5,8.24-73.31c-4.73-3.41-9.85-6.5-14.2-10.37-5.27-4.69-9.9-9.32-17.22-9.35,1-.92,2.17-1.73,1.74-1.92l-2.42-1.12c-1.08-.5-4.52.08-4.97,1.2-1.5,3.74,5.22,4.84.54,17.06l-.51-7.17-1.55,10.33,2.94.13c-.16,2.67-.41,5.52-.44,8.26l-.21,19.18-2.92,53.4-.79,11.84c-3.84-4.62,1.75-8.25-1.9-12.74l-.18,10.18c-.02.88-.72,3.56-1.5,3.47l-3.45-.41-9.39-1.14-8.02-1.3c-2.67-.43-4.28-.68-6.77-2.43-3.74-2.64-6.23-4.83-5.98-9.7l3.48-67.94,1.5-27.12,1.39-19.29.48-11.59.66-18.81c5.73-.13,9.15-.29,13.95-.7l37.34-3.16,13.32,10.3,19.71,15.76,27,21.59c3.33,4.79-.11,11.75-.8,16.52-1.22,8.42-2.18,16.08-3.91,24.19-.96,4.53-1.46,8.84-1.49,13.52,1.6-3.24,2.75-6.77,3.08-9.87,1.39-13.26,2.48-25.84,6.61-39.26.24,6.85-.86,13.41-2.01,20.22l-3.12,18.44c-.51,3.02-1.18,6.46-1.9,9.38l-3.12,12.68-.87-8.14-3.76,23.79c-.96,6.05-2.88,11.68-2.67,18.23l3.49-13.28c-.67,8.19-1.79,15.42-3.14,23.21l-4.57,26.33c-.83,4.77-1.44,9.54-2.95,14.33-3.09,1.99-6.97,4.35-10.23,6.17-8.06,4.5-14.77,10.49-22.04,16.1-14.91,11.5-6.31,6.06-15.51,7.72-5.09.92-9.14.76-13.59-2.41-2.19-1.56-6.73-.88-9.47-1.5-6.46-1.47-13.17-3.34-19.01-5.98l-10.78-4.88.51-11.74,1.25-26.58,1.46-19.7,2.85,4.41,5.53,4.29,1.68,1.31c.39.3.41-.33.77-3.03ZM889.03,311.57c-2.72-3.99-12.04-4.02-10.55-1.53.35.58,1.77,1.81,2.61,1.79l7.94-.25ZM826.18,390.72c.51-4.13.63-6.61.82-9.68l.9-14.45c-1.15,3.24-3.84,21.46-1.72,24.13Z"/>
      <path class="cls-1" d="M764.84,415.33c-2.34-4.92,2.25-5.4.26-11.63l-1.71,8.27c-.67,3.22-.86,6.49-.96,10.24l2.21-6.19c.56,2.7-.09,5.25-.73,8.14-2.79,12.53-3,23.6-7.19,35.01l.05-8.09c-.84,3.2-1.61,6.27-2.09,9.52l-2.1,14.28-13.26,1.29c-.41.04-.94.19-1.2.28s.1.92.36.96l1.5.2c1.3-.41,2.48-.72,1.23.9l-7.92-.51,3.51-1.23-6.82-.19-15.44-50.13-.98-4.36-2.27-6.33-12.09-38.05c-2.19,4.65-1.2,8.69-1.05,13.06l.33,9.72c.32,9.34-.83,10.68.05,21.44.25,3.03.49,5.96-.4,8.78-.96-4.76-.21-8.88-.57-13.34-.44-5.4.45-10.56-.69-15.63-.54,10.71-.2,20.6.15,30.82l1.79-1.54-.27,17.13c-.7-3.56-.53-6.69-.76-11.2-1.12,2.21-.65,5-.62,7.78l.22,18.6c1.06.05,1.81-.06,1.8.26l-.02,1.67c0,.44-1.28-.11-2.11-.37l.47,11.64c.1,2.59.36,4.84.16,7.34-.41,5.19.02,9.72.03,15.18l.09,27.46c0,.73-.82,1.69-.93,1.97-.15.38.92,1.25.94,1.88l.51,21.69-19.55,4.14c-5.26,1.11-11.01,1.52-15.67,3.48-.48.71-2.03.15-3.93-.29v-245.17s3.72-1.09,3.72-1.09l-3.71-.46v-71.41c0-.84.94-2.57,1.57-2.61l12.24,3.4,16.75,4.75c2.41.68,4.07,9.86,7.11,15.82.8,1.56,1.11,4.15,1.62,6.16,3.23,2.35,1.75,3.04,4.19,10.5,3.11,9.49,3.28,4.54,3.95,11.13.34,3.33,2.24,6.73,2.78,9.93.26,1.52.38,2.17,1.87,3.32l1.15,3.91c1.38,1.02,2.26,2.26,1.99,3.92l-1.6-1.3c1.11,3.14,2.1,5.82,3.5,8.62l1.29,2.58c3.61,3.24-.09,2.08,3.35,9.87.34.77.44,2.59.97,3.14.62.64,1.62,1.41,1.62,1.94.01,5.97,2.06,8.16,4.3,12.95,2.14,4.59,3.63,9.23,5.29,13.89.93,2.6,1.26,5.16,3.08,7.55l7.73-64.97c.24-1.98.45-3.42.65-5.28l4.87-44.1c7.5,3.42,13.99,6.37,20.65,10.08,5.85,3.25,10.9,4.45,16.87,8.31.93.6,1.59,3.26,2.89,3.73l-.97,7.67c-1.45,11.46-2.4,5.87-3.23,17.68-.2,2.77-3.55,15.94-3.65,10.84s2.51-6.82,1.48-11.51l-4.57,23.33,2.85-2.78-.8,5.08-1.14,7.34c-.42,2.72-.9,5.57-1.48,8.2l-2.5,11.25c-.37,1.64-.57,3.28-.86,5.3l-1.31-4.08c-.88,3.83-2.19,7.31-2.32,11.26l-.23,7.15,2.58-8.61c.09,3.34-.24,6.35-.97,9.31-3.01,12.21-2.9,18.81-5.51,29.54l-2.41,9.92ZM772.22,289.52l-.92-4.73-3.05,1.44c3.86,2.14.95,1.71,3.35,5.09.13.19.89-.35.85-.58l-.22-1.22ZM784.81,298.9c1.4-3.75,1.9-6.18,1.99-9.46-2.57,3.15-2.59,6.6-1.99,9.46ZM696.75,376.45h-.65v16.26h.65v-16.26ZM767.92,392.79l2.95-15.11c-1.41.61-1.58,1.88-1.54,3.23-.74,4.08-2.26,7.67-1.41,11.88Z"/>
      <path class="cls-1" d="M999.29,469.18l.61,9.59c.18,2.8.11,5.53-.19,8.1l-1.15-5.03-1.34,13.54c-.08.83-2.32,2.76-2.62,3.53l-.6,1.5c-.2.5-2.55.36-2.39-.16l1.07-3.39-13.43-.65-.19,3.04c-.01.2-9.06,3.65-12.65-3.7-2.52-5.16-2.15-11.92-2.76-17.99-1.91-19.21,1.18-18.51-5.69-16.99-8.65,1.92-17.82,3.11-26.69,4.1l-.58,6.41-1.42,13.5,2.55-5.81c-.25,3.88-.94,8.25-2.94,11.87-4.11,7.44,1.43,4.59-.44,9.85-.15.41-.64-.26-1.61-1.53-4.99-.83-10.42-1.46-15.77-1.73l-12.25-.63c-.1-1.87-.07-5.16.2-7.52l3.18-28.24,5.79-46.27c.07-.59,3.12-1.65,2.72-1.83s-1.57-1.56-1.54-2.01l.96-12.9,6.3-50.86,5.96-47.2,1.76-13.33,1.91-16.45c.24-2.06,5.53-1.46,7.52-1.77l47.08-7.36c1.9,3.71,2.27,6.83,2.84,10.68l1.09-7.22c1.76,4.69,1.61,8.86,1.84,13.62l1.16,24.04c-1.36-3.88-1.5-6.86-2.33-11.25-.33,3.02-.26,6.39-.04,9.89l1.03,16.5c.23,3.62,1.37,8.43,2.01,11.73-1.79,8.04,1.34,9.49.32,19.88l-6.21.45,6.21,1.36,1.54-8.49c1.45,3.8.24,8.15-1.92,11.68,1.6,1.44,3.67,3.49,3.88,5.5.16,1.56-.99,3.98-1.97,5.79-1.88,3.44.06,7.79.4,11.37.53,5.49.37,10.62,1.31,16.33,2.37-3.07-2.03-19.32,1.17-20.55l.96,14.76.71,12.5c.23,4,.4,7.69-.54,11.75l-1.54-12.92c-.67,2.5-.57,5.17-.32,8.09l1.31,15.42.59,12.48,1.27,10.65c.88,7.38-.16,14.77.9,22.28l1.65,11.67,1.34-9.64ZM943.67,389.55c-.35,3.86-2.47,8.23-.3,11.5,1.61,2.43,1.05,6.32-.85,9.94l-1.02-4.42-1.37,8.05,21.63-1.66-1.96-30.82-3.21-56.79c-1.66.85-3.12,2.03-3.42,1.45l-1.42-2.71c-.56,2.01-.86,4.79-.23,6.84,1.05,3.42-.07,6.9-.34,10.74l-1.22,17.24-3.7,33.83c-1.75-7.02.13-13.57.47-20.44l.77-15.52c-1.5,6.04-1.94,11.81-2.49,17.88l-1.34,14.88Z"/>
      <path class="cls-1" d="M325.14,197.79l-1.66-4.24c.23,6.27.65,10.47,1.43,16l1.22-6.32c1.3,2.98,1.61,5.75,1.39,10.08l-2.56-2.91c-.26,1.89-.53,5.22-.46,6.74,3.5.64,4.84,2.07,4.96,4.97l.76,18.42,2,39.29-2.6-3-.74,5.26c-2.27-.09-6.19.33-8.09,0-4.59-1.51-9.22-3.16-14.85-2.54-4.98.56-12.86-1.93-14.33-7.83-3.49-13.95-3.91-28.47-5.56-43.05l-4.33-38.1-7.94-67.16-4.86-46.32-1.78-16.94,39.17-10.35c5.49-1.45,11.24-3.71,17.07-3.74,1.31,5.05,2.78,8.32,5.51,11.95,3.9,5.18,4.1,12.76,6.6,18.76,2.56,6.14,5.13,11.97,7.12,18.08l3.12,9.63c2.69,8.29,5.68,16.33,7.85,24.68.94,3.6,1.4,7.55,3.07,10.26,7.37,11.95,1.85,10.46,6.08,19.44l4.14,8.79-.71-8.49-1.63-29.77-3.73-71.66,14.99-7.42,12.66-5.67,18.31-8.02,2.4,5.69,3-2.12c.18,8.16.34,14.77-.22,22.37-.27,3.66.13,6.74.13,10.76l.19,170.54.13,46.77c-1.65-1.33-2.01-2.15-3.05-4.12l-1.29,5.55,4.08-.89.96,13.43c-5.58,2.58-11.14,4.23-16.62,1.1l8.81-1.54c-11.2-1.74-18.28,2.1-31.71,1.72l3.41-41.36,2.37-32.46,3.35-40.2c.2-2.42-.94-6.4-1.31-8.47.9-5.98,2.79-11.31,2.01-17.74l-5.49,16.59-7.88,24.08,2.8-1.82c.61,4.41,1.22,9.74-3.53,13.3-.3-1.68-.41-3.15-.63-6.38-1.1,2.21-2.97,6.12-2.91,8.35,2.18,2.54,1.53,6.49.08,9.22-2.62,4.93-16.62,4.1-19.14.62,6.32,1.04,11.85,2.78,16.7-1.45l-16.56.45c-1.79.05-5.49-1.16-6.58-2.31l-4.4-13.93-5.2-18.09c-1.22-4.25-2.43-8.75-4.65-12.34l-3.27-5.32c-2.36,19.95,5.14,7.01,2.42,21.2ZM351.73,178.23c-1.58-1.92-2.59-2.6-2.27-3.07l1.56-2.33c.51-.76,2.19-2.94,1.47-3.53s-2.7-1.82-2.76-1.77l-1.47,7.28c-.17.86-.48,3,.31,3.08l3.16.34Z"/>
      <path class="cls-1" d="M233.79,241.77c-17.73-5.82-17.54-1.68-33.59-7.82l3.16-1.07c-3.64-1.21-6.14-2.05-10.64-1.58l7.08,4.89c-4.64,1.16-4.38,11.23-4.35,15.01l.11,15.18-4.57-3.15,4.45,7.27.26,20.41c0,.43-.56,2.02-.76,2.26-.3.37-1.14.85-1.41.45l-1.51-2.26c-12.9,4.38-21.29,3.83-35.91,7.71l6.01,2.32c-4.59,3.29-11.61,5.31-15.66,1.03-2.63-2.78-2.43-7.44-1.81-10.91l9.91-55.18,7.54-40.63,5.52-30.42,5.79-30.78,3.98-23.34,2.77-.67c.6-.14-1.82-2.35-1.75-3.1,1.32-13.73,6.13-32.24,8.66-48.8,1.16-7.64,1.91-15.2,4.86-22.23l34.75,10.19c5.27,1.55,9.98,3.91,13.84,6.49,5.28-1.58,12.81.72,15.33,6.82,1.32,3.18,1.42,8.45,2.51,12.83.64,2.57-.71,5.71-1.68,8.33-.16,2.32.25,1.75,1.36-1.06,1.01,2.57,2.21,5.74,2.48,8.57l2.24,23.26.87,11.68,6.77,56.77,1.12,14.6c1.49,19.51,6.82,46.86,6.26,68.7l-2.7-11.06,1.88,18.51,3.32,2.45c-3.34.32-5.71.02-8.29-.72l3.14-1.56c-2.91-.48-5.42-.7-8.69-.82-4.65-.16-9.39-2.58-14.09-3.74-3.43-.85-7.48-.59-11.05-1.93-2.41-.91-3.79-4.97-4.18-7.58l-1.81-12.35c-.05-.35.59-2.29.54-2.24-.04.03-1.15-.42-2.08-.73ZM204.61,176.46l-2.35,10.69,12.44.1h9.57c2.5,0,5.27-.13,7.5-.31-1.1-4.96-1.91-8.62-2.59-13.44l-2.48-17.53-4.97-30.76c-1.19-7.37-1.29-15.73-3.87-22.49-2.04-5.36-3.26-8.91-2.92-15.61-5.89,17.55,3.21,17.54-.93,28.67l-1.11-10.85c-.65,2.69-1.12,5.08-1.46,7.69l-2.13,16.33c-2.3,17.66,3.11,1.86,1.37,20.8l-2.95,32.15c-.07.81-1.19,2.52-1.61,2.82-3.63,2.62.4-8.6-1.53-8.27Z"/>
      <path class="cls-1" d="M104.07,174.59c-.25-.34-1.05-1.05-1.15-.74-.16.5-.55,2.07-.57,2.67l-1.53,38.03c-.1,2.4-1.28,4.29,1.09,5.4l.71-17.44c.25-6.14.11-11.91,1.78-18.48.93,5.97.43,11.84.24,18.11l-.55,18.7-1.17,18.3-.44,10.69-2.24,56.67c-4.4-3.51-24.22-4.7-27.35-2.77l-.31-1.88c-13.28-1.46-18.85,3.69-28.62-1.61-1.63-.88-7.24.81-7.06-2.21l1.27-20.68,2.82-46.58.49-7.13,4.43-74.56,2.01-28.79c.41-5.87.79-11.86.61-17.84-8.37-.37-15.36-.88-22.64-2.1-.24-2.04-.51-3.65-1.49-3.86-1.45-.31-3.87.73-5.28,2.03C8.21,90.84-.35,97.26.01,90.69l1-18.49.35-11.61.07-12.22L2.57,15.12,3.16,0l23.56,8.98,15.77,6.49,9.72,3.94,18.46,7.61,30.19,12.32,22.19,8.97,27.2,11.79-10.33.77c3.61,3.1,8.71-.92,12.59.13,5.77,1.57,12.63,3.7,17.43,7.43l6.06,4.72-2.57,7-.99-7.22c-2.84,7.99-4.28,15.45-5.76,24.83l3.89-1.1-2.82,19.38c-4.71.86-8.02-.85-12.68-1.05l-17.35-.75c-3.14-3.51-6.15-4.67-10.8-5.17l-19.79-2.11c-.73-.08-3.3.04-3.13.59l1.13,3.67c3.26-2.17,7.16-1.33,10.37.06-2.85.99-4.94,1.69-6.37,2.27s-1.75,4.24-1.59,5.84c.38,3.7.07,6.92-.25,10.73-1.08,12.93,3,21.41-4.24,22.7-.29,4.32-.12,9.55,1.12,14.18.56-3.38-.26-6.14,1.1-9.64,1.19,7.95,1.39,14.92.38,23.37-2.17-.44-1.86-2.92-1.56-6.17ZM121.54,60.95c5.03-.4,10.31,1.56,15.7-.16-4.53-4.72-9.56-.58-14.58-2.66-2.4-1-5.44.34-7.76.57-2.61.26-4.79.54-7.4,1.14-7.38,1.68-13.14-.17-21.04,2.44,12.97-.21,22.35-.31,35.08-1.33ZM101.06,248.33l.14-14.85c1.13-2.58,1.6-5.49-.9-7l-.26,16.37c-.03,1.84-2.8,4.28,1.02,5.48Z"/>
      <path class="cls-1" d="M517.45,428.06l-1.36,52.85c-.27,10.55,3.54,21.56-2.91,31.47l1.33-73.38c.11-5.91.07-11.13-1.85-17.71-.89,9.06-.88,17.94-1.03,27.61l-.98,60.33-9.98,5.09-16.72-2.97c3.73-2.33,3.67-2.78.62-2.92l-26.21-4.54c-19.35-3.35-14.74,10.92-33.79-6.13l-3.19-192.25-.19-45.24-.08-42.16-1.17-84.19c.63-.8,2.59-2.92,3.13-3.52s-2.92-3.23-2.95-4.25l-1.07-39.96c-.47-17.58-.36-33.38.96-50.73l77.87-8.71,66.34-7.13,71.58,55.91,40.15,32.34c-4.14,15.54-7.01,30.33-8.51,45.71l6.78-2.22-7.06,32.15c-3.42-10.07,3.46-17.33.62-28.88l-10.12,52.64-7.61,37.61c-1.46,7.24-3.14,13.95-4.99,20.67l-86.53,40.08c-1.91.89-2.78,6.77-4.04,6.46l-5.73-1.42c-9.8-2.43-16.49-4.47-28.02-8.25l-4.04,29.87c-4.14-8.96,2.93-29.84-1.17-37.28-4.27,11.94-1.34,22.95-1.92,34.66-.87,17.65-.86,34.53-1.5,52.1l-.5,13.57.92,19.01,3.04-6.33c.75,5.89,2.05,12.98,1.87,20.04ZM594.5,214.1l1-14.55c1.59-23.1,3.2-45.23,3.5-67.54l-39.82-23.58-13.63-7.41c-3.62-1.97-12.32-.7-17.99,0-.43,31.16-.87,60.99.85,91.8l1.97,35.12,1.75-45.63c2.76,16.47,1.37,30.32,2.12,46.48l60.25-14.69Z"/>
    </g>
  </g>
</svg>